<?xml version="1.0" standalone="no"?>
<!DOCTYPE svg PUBLIC "-//W3C//DTD SVG 20010904//EN"
 "http://www.w3.org/TR/2001/REC-SVG-20010904/DTD/svg10.dtd">
<svg version="1.0" xmlns="http://www.w3.org/2000/svg"
 width="512.000000pt" height="512.000000pt" viewBox="0 0 512.000000 512.000000"
 preserveAspectRatio="xMidYMid meet">
<metadata>
Created by potrace 1.14, written by Peter Selinger 2001-2017
</metadata>
<g transform="translate(0.000000,512.000000) scale(0.100000,-0.100000)"
fill="#000000" stroke="none">
<path d="M4985 5064 c-71 -30 -164 -69 -205 -85 -41 -16 -88 -36 -105 -44 -16
-7 -59 -25 -95 -39 -36 -15 -74 -31 -85 -35 -54 -23 -98 -42 -180 -76 -49 -20
-103 -43 -120 -50 -16 -7 -59 -25 -95 -40 -36 -14 -78 -32 -95 -40 -16 -7
-190 -79 -385 -160 -195 -80 -368 -152 -385 -160 -16 -7 -275 -115 -575 -240
-300 -125 -558 -233 -575 -240 -16 -8 -136 -57 -265 -110 -129 -53 -244 -100
-255 -105 -68 -30 -118 -52 -166 -70 -30 -11 -67 -27 -84 -35 -16 -7 -205 -86
-420 -175 -214 -89 -403 -168 -420 -175 -16 -7 -124 -52 -240 -100 -116 -48
-214 -90 -218 -95 -4 -4 25 -15 65 -24 40 -10 87 -22 103 -27 17 -5 116 -34
220 -64 492 -142 890 -290 1219 -455 l160 -79 45 37 c25 20 57 46 71 58 26 23
192 161 275 229 26 22 53 45 59 50 6 6 49 42 96 80 47 38 87 72 90 75 3 3 43
37 90 75 47 38 87 72 90 75 3 3 70 59 150 125 167 138 189 156 204 170 6 6 49
42 96 80 101 84 129 107 144 120 6 6 49 42 96 80 47 38 87 72 90 75 3 3 43 37
90 75 47 38 87 72 90 75 3 3 30 25 60 50 30 25 60 49 66 55 16 14 42 36 174
145 63 52 117 97 120 100 3 3 43 37 90 75 47 38 90 74 96 80 6 5 22 19 35 30
56 46 260 216 343 286 49 41 107 89 129 107 23 18 61 50 86 71 26 21 89 74
141 117 52 43 97 81 100 84 17 19 102 81 89 65 -21 -26 -425 -513 -453 -545
-11 -14 -64 -77 -116 -140 -52 -63 -105 -126 -116 -140 -43 -50 -100 -118
-139 -165 -51 -63 -201 -243 -229 -275 -11 -14 -109 -131 -216 -260 -107 -129
-197 -237 -200 -240 -3 -3 -52 -61 -109 -130 -57 -69 -113 -136 -125 -150 -11
-14 -52 -63 -91 -110 -38 -47 -80 -96 -91 -110 -26 -29 -89 -106 -237 -284
-60 -72 -118 -142 -130 -156 -12 -14 -110 -131 -217 -260 -107 -129 -197 -237
-200 -240 -3 -3 -22 -26 -43 -51 l-36 -45 89 -180 c164 -330 317 -748 465
-1263 30 -107 57 -204 60 -215 2 -12 11 -43 18 -71 l15 -50 15 35 c23 52 510
1222 702 1685 48 116 93 224 100 240 8 17 37 86 65 155 29 69 58 139 65 155 7
17 30 71 50 120 21 50 43 104 50 120 8 17 97 233 200 480 103 248 193 464 200
480 8 17 24 55 35 85 12 30 28 69 35 85 8 17 71 167 140 335 70 168 133 319
140 335 11 23 192 461 321 773 7 17 12 32 11 32 -1 -1 -60 -26 -132 -56z"/>
</g>
</svg>
